inDegrees=no
num_controls=7
num_derivatives=13
num_iterations=110
num_multipliers=7
num_parameters=0
num_slacks=7
num_states=26
objective=0.333837
objective_accelerations=0.037039
objective_balance=0.001359
objective_effort=0.027146
objective_height=0.266822
objective_ligament=0.001472
solver_duration=1187.857379
status=Solve_Succeeded
success=true
DataType=double
version=3
OpenSimVersion=4.5
endheader
time	/jointset/ground_pelvis/pelvis_tilt/value	/jointset/ground_pelvis/pelvis_tx/value	/jointset/ground_pelvis/pelvis_ty/value	/jointset/hip_r/hip_flexion_r/value	/jointset/hip_r/hip_adduction_r/value	/jointset/hip_r/hip_rotation_r/value	/jointset/back/lumbar_extension/value	/jointset/patellofemoral_r/patellar_flexion_r/value	/jointset/knee_r/knee_flexion_r/value	/jointset/knee_r/knee_adduction_r/value	/jointset/knee_r/knee_rotation_r/value	/jointset/ankle_r/ankle_angle_r/value	/jointset/subtalar_r/subtalar_angle_r/value	/jointset/ground_pelvis/pelvis_tilt/speed	/jointset/ground_pelvis/pelvis_tx/speed	/jointset/ground_pelvis/pelvis_ty/speed	/jointset/hip_r/hip_flexion_r/speed	/jointset/hip_r/hip_adduction_r/speed	/jointset/hip_r/hip_rotation_r/speed	/jointset/back/lumbar_extension/speed	/jointset/patellofemoral_r/patellar_flexion_r/speed	/jointset/knee_r/knee_flexion_r/speed	/jointset/knee_r/knee_adduction_r/speed	/jointset/knee_r/knee_rotation_r/speed	/jointset/ankle_r/ankle_angle_r/speed	/jointset/subtalar_r/subtalar_angle_r/speed	/forceset/tau_hip_flexion_r	/forceset/tau_hip_adduction_r	/forceset/tau_hip_rotation_r	/forceset/tau_knee_flexion_r	/forceset/tau_ankle_angle_r	/forceset/tau_subtalar_angle_r	/forceset/tau_lumbar_extension	lambda_cid13_p0	lambda_cid14_p0	lambda_cid14_p1	lambda_cid14_p2	lambda_cid14_p3	lambda_cid14_p4	lambda_cid14_p5	/jointset/ground_pelvis/pelvis_tilt/accel	/jointset/ground_pelvis/pelvis_tx/accel	/jointset/ground_pelvis/pelvis_ty/accel	/jointset/hip_r/hip_flexion_r/accel	/jointset/hip_r/hip_adduction_r/accel	/jointset/hip_r/hip_rotation_r/accel	/jointset/back/lumbar_extension/accel	/jointset/patellofemoral_r/patellar_flexion_r/accel	/jointset/knee_r/knee_flexion_r/accel	/jointset/knee_r/knee_adduction_r/accel	/jointset/knee_r/knee_rotation_r/accel	/jointset/ankle_r/ankle_angle_r/accel	/jointset/subtalar_r/subtalar_angle_r/accel	gamma_cid13_p0	gamma_cid14_p0	gamma_cid14_p1	gamma_cid14_p2	gamma_cid14_p3	gamma_cid14_p4	gamma_cid14_p5
0.5	-0.1682483941060153	0.02875684549102661	0.8044248451327216	0.9198941169617635	-0.2238971772602334	-0.1230100069918434	-0.6483552699518464	0.9557259843830122	0.9557259843830337	-0.04715656808536191	0.1745206710292559	0.2958571008709093	0.1375669851398574	-0.4280356824464393	-0.2092897053687868	-0.5101875280694682	1.949122816417685	-0.00839663575316075	0.1727827776421131	-0.740140505498933	1.936013260711268	1.936013260711201	-0.4705371349510153	5.297101418524756e-05	0.5279668759632764	0.1956146501666939	-0.2130385388410087	0.01314818436467407	0.0154245537221771	-0.2693725002794904	-0.01794001684651608	0.002567195277915496	0.2487504853327778	-8.384275364977094	-47.84175355333119	-5.646692870912562	-0.5226831830038244	-3.395598703241409	-640.1380148494499	59.94434726269129	0.3654507491186608	0.6056975529698606	-0.4327366987744254	-1.327032909988885	-0.2530979163488873	-0.647403335839198	1.854837583909108	-1.375674436489535	-1.375674436489563	0.4513728609160746	-0.01609493349276138	-0.5831534946371261	-0.4123397230174764	-1.463214785439546e-07	-1.584586114340034e-07	4.907312965987984e-07	-1.663335951725716e-06	4.737834801216832e-08	-2.879893695830316e-07	3.783299020465197e-07
0.51	-0.1725095545630225	0.02669448092433903	0.7993025535861492	0.9393158152451287	-0.2239945712965576	-0.1213132409148873	-0.6556633318076748	0.9750145788361509	0.9750145788361508	-0.05183634515731415	0.1745210788284491	0.3011065203442785	0.1395006895418201	-0.4241302971555015	-0.203160637446552	-0.5141528398229345	1.934948290071218	-0.01107054612928455	0.1665780229611158	-0.7213787261131968	1.92143877701471	1.921438777014677	-0.4653844275631778	3.309594512051081e-05	0.5218440546551841	0.191095546624802	-0.2198686762278385	0.01391533885108515	0.01548015595145109	-0.2742579518876708	-0.01875354086180014	0.003155993902646203	0.255041319796026	-7.439136987863698	-48.41074211893907	-5.642036684370958	-0.3504520153048107	-3.514169471878036	-645.4036032450142	60.36380058276376	0.4129832720946935	0.6199067072969227	-0.3607941268456591	-1.502966766736475	-0.2730079281584321	-0.6061354373391736	1.900819048926919	-1.538333537913674	-1.538333537908501	0.5523616158138666	0.005426411161235739	-0.6378131901378473	-0.4764217072065742	-1.530022839474492e-07	-1.741609038967696e-07	3.952988714209905e-07	-1.811474626621304e-06	6.443852978533312e-08	-2.840029250119836e-07	2.736841873817938e-07
0.52	-0.1767296809965171	0.02469408609596312	0.7941441357793995	0.9585877074110767	-0.2241183985026259	-0.1196783471653637	-0.6627809816830417	0.9941494288119906	0.9941494288119667	-0.0564635667677671	0.1745213599179117	0.3062925182563184	0.1413882577008775	-0.4198288777440311	-0.1968957577064507	-0.5174127801049172	1.919161592934315	-0.01368326970197978	0.1604083121557512	-0.7020581094066195	1.905264365251163	1.905264365251165	-0.4600260426514891	2.762906703904997e-05	0.5152825636973891	0.1863874015856487	-0.226698813614674	0.01468249333749322	0.01553575818070464	-0.2791434034958535	-0.01956706487708441	0.00374479252737257	0.2613321542592693	-6.553415671994032	-48.97602742573501	-5.63076056001161	-0.1860976880950663	-3.67164810511432	-650.6310898641408	60.84799008753768	0.4446575732251673	0.6328599165431487	-0.2916624044776938	-1.649467068076153	-0.2408605556631685	-0.6403945607126511	1.966605048077307	-1.695660049887335	-1.695660049887281	0.4925083656862918	-0.01321329529612729	-0.6708874245776751	-0.4501480224697437	-1.617591070450462e-07	-2.002535342665969e-07	2.118905680068728e-07	-2.064934085543109e-06	9.646807907761929e-08	-2.82730648432381e-07	1.04327653040312e-07
0.53	-0.1809047643721443	0.02275685296708524	0.7889566508034677	0.9776938884156443	-0.2242682033320133	-0.1181036713379972	-0.669702882069473	1.013114915388478	1.013114915388585	-0.0610348624691398	0.1745213068746803	0.3114106318790703	0.1432274538051163	-0.4151156109512726	-0.1905446270326171	-0.5199654201052848	1.901823325134405	-0.01626924707077458	0.1545766112337574	-0.6822537489005692	1.887589078965518	1.88758907896552	-0.4541568719401608	-3.975683746701867e-05	0.5082606210598564	0.1814100307281368	-0.2336839777074112	0.01585475378180061	0.0155896307880485	-0.2834636424101313	-0.02141131866656602	0.004100361668260102	0.2675964273225958	-5.727747710861582	-49.90193227669163	-5.792541187595498	0.01569705586509365	-3.376259893014844	-655.8445485760989	60.94181288850297	0.4954657343347568	0.6371984566317341	-0.2193019638648052	-1.813729183874881	-0.2665070775541219	-0.547391191249352	1.997584398720996	-1.840010308315667	-1.840010308315773	0.6455808646094395	-0.00415816718303604	-0.7297916197522477	-0.5280423840351057	-1.437671236447215e-07	-1.597231377167128e-07	3.567997033883339e-07	-1.692081938914905e-06	5.45655711042072e-08	-2.415903712154435e-07	2.051252642673439e-07
0.54	-0.1850305541794368	0.02088332290771136	0.7837471919943224	0.9966191422326272	-0.2244436760851021	-0.1165858791865125	-0.6764246922814736	1.031896339624028	1.031896339624263	-0.06554517457524714	0.1745204485865757	0.3164561372881649	0.1450155740474514	-0.4099701640771727	-0.1841551438056516	-0.5218075467475927	1.882976155417438	-0.01881685444222836	0.1490315769794993	-0.662040074520435	1.868451897063369	1.86845189706337	-0.447829323598699	-0.0001334199081796751	0.5007609209658765	0.1761722292048969	-0.240669141800154	0.01702701422610555	0.01564350339536665	-0.287783881324412	-0.02325557245604767	0.004455930809144203	0.2738607003859174	-4.962182097005273	-50.8247467452107	-5.947487730647949	0.2092136189339346	-3.119343731697004	-661.0227222151724	61.11072171589736	0.531093589493444	0.6405304271695418	-0.1495597328657469	-1.951247451487383	-0.2331865561949676	-0.5830612271655065	2.048467822894085	-1.988039173188074	-1.988039173188117	0.5841838917129896	-0.01846872853744895	-0.7664389158670922	-0.5022341556153284	-9.618071603392974e-08	-4.548215819182798e-08	8.649536646712909e-07	-6.262892925292342e-07	-6.913410660997838e-08	-1.563408166976245e-07	6.048168237829477e-07
